<svg xmlns="http://www.w3.org/2000/svg" version="1.1" xmlns:xlink="http://www.w3.org/1999/xlink" xmlns:svgjs="http://svgjs.dev/svgjs" width="1440" height="560" preserveAspectRatio="none" viewBox="0 0 1440 560"><g mask="url(&quot;#SvgjsMask3749&quot;)" fill="none"><rect width="1440" height="560" x="0" y="0" fill="url(&quot;#SvgjsLinearGradient3750&quot;)"></rect><path d="M-96.56 402.6L-96.56 402.6" stroke="rgba(31, 77, 76, 1)" stroke-width="1.5"></path><path d="M-96.56 402.6L-88.28 537.2" stroke="rgba(31, 77, 76, 1)" stroke-width="1.5"></path><path d="M-96.56 402.6L81.47 498.87" stroke="rgba(31, 77, 76, 1)" stroke-width="1.5"></path><path d="M-96.56 402.6L105.24 338.18" stroke="rgba(31, 77, 76, 1)" stroke-width="1.5"></path><path d="M-96.56 402.6L-105.97 666.16" stroke="rgba(31, 77, 76, 1)" stroke-width="1.5"></path><path d="M-88.28 537.2L-88.28 537.2" stroke="rgba(31, 77, 76, 1)" stroke-width="1.5"></path><path d="M-88.28 537.2L-105.97 666.16" stroke="rgba(31, 77, 76, 1)" stroke-width="1.5"></path><path d="M-105.97 666.16L-105.97 666.16" stroke="rgba(31, 77, 76, 1)" stroke-width="1.5"></path><path d="M-105.97 666.16L94.65 686.5" stroke="rgba(31, 77, 76, 1)" stroke-width="1.5"></path><path d="M-105.97 666.16L81.47 498.87" stroke="rgba(31, 77, 76, 1)" stroke-width="1.5"></path><path d="M105.24 338.18L105.24 338.18" stroke="rgba(31, 77, 76, 1)" stroke-width="1.5"></path><path d="M105.24 338.18L261.07 369.27" stroke="rgba(31, 77, 76, 1)" stroke-width="1.5"></path><path d="M105.24 338.18L81.47 498.87" stroke="rgba(31, 77, 76, 1)" stroke-width="1.5"></path><path d="M81.47 498.87L81.47 498.87" stroke="rgba(31, 77, 76, 1)" stroke-width="1.5"></path><path d="M81.47 498.87L214.42 528.29" stroke="rgba(31, 77, 76, 1)" stroke-width="1.5"></path><path d="M81.47 498.87L-88.28 537.2" stroke="rgba(31, 77, 76, 1)" stroke-width="1.5"></path><path d="M94.65 686.5L94.65 686.5" stroke="rgba(31, 77, 76, 1)" stroke-width="1.5"></path><path d="M94.65 686.5L201.69 692.86" stroke="rgba(31, 77, 76, 1)" stroke-width="1.5"></path><path d="M94.65 686.5L81.47 498.87" stroke="rgba(31, 77, 76, 1)" stroke-width="1.5"></path><path d="M94.65 686.5L214.42 528.29" stroke="rgba(31, 77, 76, 1)" stroke-width="1.5"></path><path d="M261.07 369.27L261.07 369.27" stroke="rgba(31, 77, 76, 1)" stroke-width="1.5"></path><path d="M261.07 369.27L353.75 365.22" stroke="rgba(31, 77, 76, 1)" stroke-width="1.5"></path><path d="M261.07 369.27L214.42 528.29" stroke="rgba(31, 77, 76, 1)" stroke-width="1.5"></path><path d="M214.42 528.29L214.42 528.29" stroke="rgba(31, 77, 76, 1)" stroke-width="1.5"></path><path d="M214.42 528.29L201.69 692.86" stroke="rgba(31, 77, 76, 1)" stroke-width="1.5"></path><path d="M201.69 692.86L201.69 692.86" stroke="rgba(31, 77, 76, 1)" stroke-width="1.5"></path><path d="M201.69 692.86L370.04 700.15" stroke="rgba(31, 77, 76, 1)" stroke-width="1.5"></path><path d="M201.69 692.86L81.47 498.87" stroke="rgba(31, 77, 76, 1)" stroke-width="1.5"></path><path d="M353.75 365.22L353.75 365.22" stroke="rgba(31, 77, 76, 1)" stroke-width="1.5"></path><path d="M353.75 365.22L383.31 553.58" stroke="rgba(31, 77, 76, 1)" stroke-width="1.5"></path><path d="M353.75 365.22L547.33 365.89" stroke="rgba(31, 77, 76, 1)" stroke-width="1.5"></path><path d="M353.75 365.22L214.42 528.29" stroke="rgba(31, 77, 76, 1)" stroke-width="1.5"></path><path d="M353.75 365.22L492.33 538.19" stroke="rgba(31, 77, 76, 1)" stroke-width="1.5"></path><path d="M353.75 365.22L105.24 338.18" stroke="rgba(31, 77, 76, 1)" stroke-width="1.5"></path><path d="M383.31 553.58L383.31 553.58" stroke="rgba(31, 77, 76, 1)" stroke-width="1.5"></path><path d="M383.31 553.58L492.33 538.19" stroke="rgba(31, 77, 76, 1)" stroke-width="1.5"></path><path d="M383.31 553.58L370.04 700.15" stroke="rgba(31, 77, 76, 1)" stroke-width="1.5"></path><path d="M383.31 553.58L214.42 528.29" stroke="rgba(31, 77, 76, 1)" stroke-width="1.5"></path><path d="M383.31 553.58L541.38 646.18" stroke="rgba(31, 77, 76, 1)" stroke-width="1.5"></path><path d="M383.31 553.58L261.07 369.27" stroke="rgba(31, 77, 76, 1)" stroke-width="1.5"></path><path d="M370.04 700.15L370.04 700.15" stroke="rgba(31, 77, 76, 1)" stroke-width="1.5"></path><path d="M370.04 700.15L541.38 646.18" stroke="rgba(31, 77, 76, 1)" stroke-width="1.5"></path><path d="M547.33 365.89L547.33 365.89" stroke="rgba(31, 77, 76, 1)" stroke-width="1.5"></path><path d="M547.33 365.89L649.57 387.23" stroke="rgba(31, 77, 76, 1)" stroke-width="1.5"></path><path d="M547.33 365.89L492.33 538.19" stroke="rgba(31, 77, 76, 1)" stroke-width="1.5"></path><path d="M547.33 365.89L656.91 558.34" stroke="rgba(31, 77, 76, 1)" stroke-width="1.5"></path><path d="M547.33 365.89L383.31 553.58" stroke="rgba(31, 77, 76, 1)" stroke-width="1.5"></path><path d="M492.33 538.19L492.33 538.19" stroke="rgba(31, 77, 76, 1)" stroke-width="1.5"></path><path d="M492.33 538.19L541.38 646.18" stroke="rgba(31, 77, 76, 1)" stroke-width="1.5"></path><path d="M492.33 538.19L656.91 558.34" stroke="rgba(31, 77, 76, 1)" stroke-width="1.5"></path><path d="M541.38 646.18L541.38 646.18" stroke="rgba(31, 77, 76, 1)" stroke-width="1.5"></path><path d="M541.38 646.18L641.6 710.38" stroke="rgba(31, 77, 76, 1)" stroke-width="1.5"></path><path d="M541.38 646.18L656.91 558.34" stroke="rgba(31, 77, 76, 1)" stroke-width="1.5"></path><path d="M649.57 387.23L649.57 387.23" stroke="rgba(31, 77, 76, 1)" stroke-width="1.5"></path><path d="M649.57 387.23L656.91 558.34" stroke="rgba(31, 77, 76, 1)" stroke-width="1.5"></path><path d="M649.57 387.23L857.62 404.16" stroke="rgba(31, 77, 76, 1)" stroke-width="1.5"></path><path d="M649.57 387.23L492.33 538.19" stroke="rgba(31, 77, 76, 1)" stroke-width="1.5"></path><path d="M656.91 558.34L656.91 558.34" stroke="rgba(31, 77, 76, 1)" stroke-width="1.5"></path><path d="M656.91 558.34L641.6 710.38" stroke="rgba(31, 77, 76, 1)" stroke-width="1.5"></path><path d="M641.6 710.38L641.6 710.38" stroke="rgba(31, 77, 76, 1)" stroke-width="1.5"></path><path d="M641.6 710.38L817.8 670.89" stroke="rgba(31, 77, 76, 1)" stroke-width="1.5"></path><path d="M641.6 710.38L492.33 538.19" stroke="rgba(31, 77, 76, 1)" stroke-width="1.5"></path><path d="M641.6 710.38L370.04 700.15" stroke="rgba(31, 77, 76, 1)" stroke-width="1.5"></path><path d="M803.42 189.17L803.42 189.17" stroke="rgba(31, 77, 76, 1)" stroke-width="1.5"></path><path d="M803.42 189.17L951.06 210.34" stroke="rgba(31, 77, 76, 1)" stroke-width="1.5"></path><path d="M803.42 189.17L943.24 62.05" stroke="rgba(31, 77, 76, 1)" stroke-width="1.5"></path><path d="M803.42 189.17L857.62 404.16" stroke="rgba(31, 77, 76, 1)" stroke-width="1.5"></path><path d="M857.62 404.16L857.62 404.16" stroke="rgba(31, 77, 76, 1)" stroke-width="1.5"></path><path d="M857.62 404.16L856.1 501.96" stroke="rgba(31, 77, 76, 1)" stroke-width="1.5"></path><path d="M857.62 404.16L1002.94 349.01" stroke="rgba(31, 77, 76, 1)" stroke-width="1.5"></path><path d="M857.62 404.16L992.09 497.17" stroke="rgba(31, 77, 76, 1)" stroke-width="1.5"></path><path d="M856.1 501.96L856.1 501.96" stroke="rgba(31, 77, 76, 1)" stroke-width="1.5"></path><path d="M856.1 501.96L992.09 497.17" stroke="rgba(31, 77, 76, 1)" stroke-width="1.5"></path><path d="M856.1 501.96L817.8 670.89" stroke="rgba(31, 77, 76, 1)" stroke-width="1.5"></path><path d="M817.8 670.89L817.8 670.89" stroke="rgba(31, 77, 76, 1)" stroke-width="1.5"></path><path d="M817.8 670.89L938.83 656.73" stroke="rgba(31, 77, 76, 1)" stroke-width="1.5"></path><path d="M986.05 -96.18L986.05 -96.18" stroke="rgba(31, 77, 76, 1)" stroke-width="1.5"></path><path d="M986.05 -96.18L1114.48 -65.34" stroke="rgba(31, 77, 76, 1)" stroke-width="1.5"></path><path d="M986.05 -96.18L943.24 62.05" stroke="rgba(31, 77, 76, 1)" stroke-width="1.5"></path><path d="M986.05 -96.18L1123.32 98.91" stroke="rgba(31, 77, 76, 1)" stroke-width="1.5"></path><path d="M986.05 -96.18L1282.33 -52.92" stroke="rgba(31, 77, 76, 1)" stroke-width="1.5"></path><path d="M943.24 62.05L943.24 62.05" stroke="rgba(31, 77, 76, 1)" stroke-width="1.5"></path><path d="M943.24 62.05L951.06 210.34" stroke="rgba(31, 77, 76, 1)" stroke-width="1.5"></path><path d="M943.24 62.05L1123.32 98.91" stroke="rgba(31, 77, 76, 1)" stroke-width="1.5"></path><path d="M943.24 62.05L1114.48 -65.34" stroke="rgba(31, 77, 76, 1)" stroke-width="1.5"></path><path d="M943.24 62.05L1124.24 218.07" stroke="rgba(31, 77, 76, 1)" stroke-width="1.5"></path><path d="M951.06 210.34L951.06 210.34" stroke="rgba(31, 77, 76, 1)" stroke-width="1.5"></path><path d="M951.06 210.34L1002.94 349.01" stroke="rgba(31, 77, 76, 1)" stroke-width="1.5"></path><path d="M951.06 210.34L1124.24 218.07" stroke="rgba(31, 77, 76, 1)" stroke-width="1.5"></path><path d="M951.06 210.34L1123.32 98.91" stroke="rgba(31, 77, 76, 1)" stroke-width="1.5"></path><path d="M1002.94 349.01L1002.94 349.01" stroke="rgba(31, 77, 76, 1)" stroke-width="1.5"></path><path d="M1002.94 349.01L1125.94 339.2" stroke="rgba(31, 77, 76, 1)" stroke-width="1.5"></path><path d="M1002.94 349.01L992.09 497.17" stroke="rgba(31, 77, 76, 1)" stroke-width="1.5"></path><path d="M992.09 497.17L992.09 497.17" stroke="rgba(31, 77, 76, 1)" stroke-width="1.5"></path><path d="M992.09 497.17L1122.83 544.12" stroke="rgba(31, 77, 76, 1)" stroke-width="1.5"></path><path d="M992.09 497.17L938.83 656.73" stroke="rgba(31, 77, 76, 1)" stroke-width="1.5"></path><path d="M992.09 497.17L1125.94 339.2" stroke="rgba(31, 77, 76, 1)" stroke-width="1.5"></path><path d="M938.83 656.73L938.83 656.73" stroke="rgba(31, 77, 76, 1)" stroke-width="1.5"></path><path d="M938.83 656.73L856.1 501.96" stroke="rgba(31, 77, 76, 1)" stroke-width="1.5"></path><path d="M1114.48 -65.34L1114.48 -65.34" stroke="rgba(31, 77, 76, 1)" stroke-width="1.5"></path><path d="M1114.48 -65.34L1123.32 98.91" stroke="rgba(31, 77, 76, 1)" stroke-width="1.5"></path><path d="M1114.48 -65.34L1282.33 -52.92" stroke="rgba(31, 77, 76, 1)" stroke-width="1.5"></path><path d="M1123.32 98.91L1123.32 98.91" stroke="rgba(31, 77, 76, 1)" stroke-width="1.5"></path><path d="M1123.32 98.91L1124.24 218.07" stroke="rgba(31, 77, 76, 1)" stroke-width="1.5"></path><path d="M1123.32 98.91L1299.77 72.58" stroke="rgba(31, 77, 76, 1)" stroke-width="1.5"></path><path d="M1124.24 218.07L1124.24 218.07" stroke="rgba(31, 77, 76, 1)" stroke-width="1.5"></path><path d="M1124.24 218.07L1125.94 339.2" stroke="rgba(31, 77, 76, 1)" stroke-width="1.5"></path><path d="M1124.24 218.07L1281.17 231.75" stroke="rgba(31, 77, 76, 1)" stroke-width="1.5"></path><path d="M1124.24 218.07L1002.94 349.01" stroke="rgba(31, 77, 76, 1)" stroke-width="1.5"></path><path d="M1124.24 218.07L1308.62 345.95" stroke="rgba(31, 77, 76, 1)" stroke-width="1.5"></path><path d="M1125.94 339.2L1125.94 339.2" stroke="rgba(31, 77, 76, 1)" stroke-width="1.5"></path><path d="M1125.94 339.2L1308.62 345.95" stroke="rgba(31, 77, 76, 1)" stroke-width="1.5"></path><path d="M1125.94 339.2L1281.17 231.75" stroke="rgba(31, 77, 76, 1)" stroke-width="1.5"></path><path d="M1125.94 339.2L1251.25 493.56" stroke="rgba(31, 77, 76, 1)" stroke-width="1.5"></path><path d="M1125.94 339.2L1122.83 544.12" stroke="rgba(31, 77, 76, 1)" stroke-width="1.5"></path><path d="M1122.83 544.12L1122.83 544.12" stroke="rgba(31, 77, 76, 1)" stroke-width="1.5"></path><path d="M1122.83 544.12L1251.25 493.56" stroke="rgba(31, 77, 76, 1)" stroke-width="1.5"></path><path d="M1122.83 544.12L1126.25 694.57" stroke="rgba(31, 77, 76, 1)" stroke-width="1.5"></path><path d="M1122.83 544.12L1268.87 645.19" stroke="rgba(31, 77, 76, 1)" stroke-width="1.5"></path><path d="M1126.25 694.57L1126.25 694.57" stroke="rgba(31, 77, 76, 1)" stroke-width="1.5"></path><path d="M1126.25 694.57L1268.87 645.19" stroke="rgba(31, 77, 76, 1)" stroke-width="1.5"></path><path d="M1282.33 -52.92L1282.33 -52.92" stroke="rgba(31, 77, 76, 1)" stroke-width="1.5"></path><path d="M1282.33 -52.92L1299.77 72.58" stroke="rgba(31, 77, 76, 1)" stroke-width="1.5"></path><path d="M1282.33 -52.92L1412.49 -105.53" stroke="rgba(31, 77, 76, 1)" stroke-width="1.5"></path><path d="M1282.33 -52.92L1406.3 111.8" stroke="rgba(31, 77, 76, 1)" stroke-width="1.5"></path><path d="M1282.33 -52.92L1123.32 98.91" stroke="rgba(31, 77, 76, 1)" stroke-width="1.5"></path><path d="M1282.33 -52.92L1553.51 -91.87" stroke="rgba(31, 77, 76, 1)" stroke-width="1.5"></path><path d="M1299.77 72.58L1299.77 72.58" stroke="rgba(31, 77, 76, 1)" stroke-width="1.5"></path><path d="M1299.77 72.58L1406.3 111.8" stroke="rgba(31, 77, 76, 1)" stroke-width="1.5"></path><path d="M1299.77 72.58L1281.17 231.75" stroke="rgba(31, 77, 76, 1)" stroke-width="1.5"></path><path d="M1281.17 231.75L1281.17 231.75" stroke="rgba(31, 77, 76, 1)" stroke-width="1.5"></path><path d="M1281.17 231.75L1308.62 345.95" stroke="rgba(31, 77, 76, 1)" stroke-width="1.5"></path><path d="M1281.17 231.75L1402.28 218.97" stroke="rgba(31, 77, 76, 1)" stroke-width="1.5"></path><path d="M1308.62 345.95L1308.62 345.95" stroke="rgba(31, 77, 76, 1)" stroke-width="1.5"></path><path d="M1308.62 345.95L1402.28 218.97" stroke="rgba(31, 77, 76, 1)" stroke-width="1.5"></path><path d="M1251.25 493.56L1251.25 493.56" stroke="rgba(31, 77, 76, 1)" stroke-width="1.5"></path><path d="M1251.25 493.56L1268.87 645.19" stroke="rgba(31, 77, 76, 1)" stroke-width="1.5"></path><path d="M1251.25 493.56L1308.62 345.95" stroke="rgba(31, 77, 76, 1)" stroke-width="1.5"></path><path d="M1251.25 493.56L1438.76 547.27" stroke="rgba(31, 77, 76, 1)" stroke-width="1.5"></path><path d="M1268.87 645.19L1268.87 645.19" stroke="rgba(31, 77, 76, 1)" stroke-width="1.5"></path><path d="M1412.49 -105.53L1412.49 -105.53" stroke="rgba(31, 77, 76, 1)" stroke-width="1.5"></path><path d="M1412.49 -105.53L1553.51 -91.87" stroke="rgba(31, 77, 76, 1)" stroke-width="1.5"></path><path d="M1406.3 111.8L1406.3 111.8" stroke="rgba(31, 77, 76, 1)" stroke-width="1.5"></path><path d="M1406.3 111.8L1402.28 218.97" stroke="rgba(31, 77, 76, 1)" stroke-width="1.5"></path><path d="M1406.3 111.8L1281.17 231.75" stroke="rgba(31, 77, 76, 1)" stroke-width="1.5"></path><path d="M1406.3 111.8L1588.53 110.1" stroke="rgba(31, 77, 76, 1)" stroke-width="1.5"></path><path d="M1406.3 111.8L1412.49 -105.53" stroke="rgba(31, 77, 76, 1)" stroke-width="1.5"></path><path d="M1402.28 218.97L1402.28 218.97" stroke="rgba(31, 77, 76, 1)" stroke-width="1.5"></path><path d="M1438.76 547.27L1438.76 547.27" stroke="rgba(31, 77, 76, 1)" stroke-width="1.5"></path><path d="M1438.76 547.27L1446.42 694.6" stroke="rgba(31, 77, 76, 1)" stroke-width="1.5"></path><path d="M1438.76 547.27L1607.91 544.76" stroke="rgba(31, 77, 76, 1)" stroke-width="1.5"></path><path d="M1438.76 547.27L1562.48 406.46" stroke="rgba(31, 77, 76, 1)" stroke-width="1.5"></path><path d="M1438.76 547.27L1599.26 656.27" stroke="rgba(31, 77, 76, 1)" stroke-width="1.5"></path><path d="M1446.42 694.6L1446.42 694.6" stroke="rgba(31, 77, 76, 1)" stroke-width="1.5"></path><path d="M1446.42 694.6L1599.26 656.27" stroke="rgba(31, 77, 76, 1)" stroke-width="1.5"></path><path d="M1446.42 694.6L1268.87 645.19" stroke="rgba(31, 77, 76, 1)" stroke-width="1.5"></path><path d="M1446.42 694.6L1607.91 544.76" stroke="rgba(31, 77, 76, 1)" stroke-width="1.5"></path><path d="M1446.42 694.6L1251.25 493.56" stroke="rgba(31, 77, 76, 1)" stroke-width="1.5"></path><path d="M1553.51 -91.87L1553.51 -91.87" stroke="rgba(31, 77, 76, 1)" stroke-width="1.5"></path><path d="M1553.51 -91.87L1588.53 110.1" stroke="rgba(31, 77, 76, 1)" stroke-width="1.5"></path><path d="M1553.51 -91.87L1406.3 111.8" stroke="rgba(31, 77, 76, 1)" stroke-width="1.5"></path><path d="M1588.53 110.1L1588.53 110.1" stroke="rgba(31, 77, 76, 1)" stroke-width="1.5"></path><path d="M1588.53 110.1L1604.38 254.76" stroke="rgba(31, 77, 76, 1)" stroke-width="1.5"></path><path d="M1588.53 110.1L1402.28 218.97" stroke="rgba(31, 77, 76, 1)" stroke-width="1.5"></path><path d="M1588.53 110.1L1412.49 -105.53" stroke="rgba(31, 77, 76, 1)" stroke-width="1.5"></path><path d="M1588.53 110.1L1299.77 72.58" stroke="rgba(31, 77, 76, 1)" stroke-width="1.5"></path><path d="M1604.38 254.76L1604.38 254.76" stroke="rgba(31, 77, 76, 1)" stroke-width="1.5"></path><path d="M1604.38 254.76L1562.48 406.46" stroke="rgba(31, 77, 76, 1)" stroke-width="1.5"></path><path d="M1604.38 254.76L1402.28 218.97" stroke="rgba(31, 77, 76, 1)" stroke-width="1.5"></path><path d="M1604.38 254.76L1406.3 111.8" stroke="rgba(31, 77, 76, 1)" stroke-width="1.5"></path><path d="M1562.48 406.46L1562.48 406.46" stroke="rgba(31, 77, 76, 1)" stroke-width="1.5"></path><path d="M1562.48 406.46L1607.91 544.76" stroke="rgba(31, 77, 76, 1)" stroke-width="1.5"></path><path d="M1562.48 406.46L1402.28 218.97" stroke="rgba(31, 77, 76, 1)" stroke-width="1.5"></path><path d="M1562.48 406.46L1599.26 656.27" stroke="rgba(31, 77, 76, 1)" stroke-width="1.5"></path><path d="M1607.91 544.76L1607.91 544.76" stroke="rgba(31, 77, 76, 1)" stroke-width="1.5"></path><path d="M1607.91 544.76L1599.26 656.27" stroke="rgba(31, 77, 76, 1)" stroke-width="1.5"></path><path d="M1607.91 544.76L1604.38 254.76" stroke="rgba(31, 77, 76, 1)" stroke-width="1.5"></path><path d="M1607.91 544.76L1268.87 645.19" stroke="rgba(31, 77, 76, 1)" stroke-width="1.5"></path><path d="M1599.26 656.27L1599.26 656.27" stroke="rgba(31, 77, 76, 1)" stroke-width="1.5"></path><path d="M1599.26 656.27L1268.87 645.19" stroke="rgba(31, 77, 76, 1)" stroke-width="1.5"></path><path d="M1599.26 656.27L1251.25 493.56" stroke="rgba(31, 77, 76, 1)" stroke-width="1.5"></path><circle r="5" cx="-96.56" cy="402.6" fill="rgba(31, 77, 76, 1)"></circle><circle r="5" cx="-88.28" cy="537.2" fill="rgba(31, 77, 76, 1)"></circle><circle r="5" cx="-105.97" cy="666.16" fill="rgba(31, 77, 76, 1)"></circle><circle r="5" cx="105.24" cy="338.18" fill="rgba(31, 77, 76, 1)"></circle><circle r="5" cx="81.47" cy="498.87" fill="rgba(31, 77, 76, 1)"></circle><circle r="5" cx="94.65" cy="686.5" fill="rgba(31, 77, 76, 1)"></circle><circle r="5" cx="261.07" cy="369.27" fill="rgba(31, 77, 76, 1)"></circle><circle r="5" cx="214.42" cy="528.29" fill="rgba(31, 77, 76, 1)"></circle><circle r="5" cx="201.69" cy="692.86" fill="rgba(31, 77, 76, 1)"></circle><circle r="5" cx="353.75" cy="365.22" fill="rgba(31, 77, 76, 1)"></circle><circle r="5" cx="383.31" cy="553.58" fill="rgba(31, 77, 76, 1)"></circle><circle r="5" cx="370.04" cy="700.15" fill="rgba(31, 77, 76, 1)"></circle><circle r="5" cx="547.33" cy="365.89" fill="rgba(31, 77, 76, 1)"></circle><circle r="5" cx="492.33" cy="538.19" fill="rgba(31, 77, 76, 1)"></circle><circle r="5" cx="541.38" cy="646.18" fill="rgba(31, 77, 76, 1)"></circle><circle r="5" cx="649.57" cy="387.23" fill="rgba(31, 77, 76, 1)"></circle><circle r="5" cx="656.91" cy="558.34" fill="rgba(31, 77, 76, 1)"></circle><circle r="5" cx="641.6" cy="710.38" fill="rgba(31, 77, 76, 1)"></circle><circle r="5" cx="803.42" cy="189.17" fill="rgba(31, 77, 76, 1)"></circle><circle r="5" cx="857.62" cy="404.16" fill="rgba(31, 77, 76, 1)"></circle><circle r="5" cx="856.1" cy="501.96" fill="rgba(31, 77, 76, 1)"></circle><circle r="5" cx="817.8" cy="670.89" fill="rgba(31, 77, 76, 1)"></circle><circle r="5" cx="986.05" cy="-96.18" fill="rgba(31, 77, 76, 1)"></circle><circle r="5" cx="943.24" cy="62.05" fill="rgba(31, 77, 76, 1)"></circle><circle r="5" cx="951.06" cy="210.34" fill="rgba(31, 77, 76, 1)"></circle><circle r="5" cx="1002.94" cy="349.01" fill="rgba(31, 77, 76, 1)"></circle><circle r="5" cx="992.09" cy="497.17" fill="rgba(31, 77, 76, 1)"></circle><circle r="5" cx="938.83" cy="656.73" fill="rgba(31, 77, 76, 1)"></circle><circle r="5" cx="1114.48" cy="-65.34" fill="rgba(31, 77, 76, 1)"></circle><circle r="5" cx="1123.32" cy="98.91" fill="rgba(31, 77, 76, 1)"></circle><circle r="5" cx="1124.24" cy="218.07" fill="rgba(31, 77, 76, 1)"></circle><circle r="5" cx="1125.94" cy="339.2" fill="rgba(31, 77, 76, 1)"></circle><circle r="5" cx="1122.83" cy="544.12" fill="rgba(31, 77, 76, 1)"></circle><circle r="5" cx="1126.25" cy="694.57" fill="rgba(31, 77, 76, 1)"></circle><circle r="5" cx="1282.33" cy="-52.92" fill="rgba(31, 77, 76, 1)"></circle><circle r="5" cx="1299.77" cy="72.58" fill="rgba(31, 77, 76, 1)"></circle><circle r="5" cx="1281.17" cy="231.75" fill="rgba(31, 77, 76, 1)"></circle><circle r="5" cx="1308.62" cy="345.95" fill="rgba(31, 77, 76, 1)"></circle><circle r="5" cx="1251.25" cy="493.56" fill="rgba(31, 77, 76, 1)"></circle><circle r="5" cx="1268.87" cy="645.19" fill="rgba(31, 77, 76, 1)"></circle><circle r="5" cx="1412.49" cy="-105.53" fill="rgba(31, 77, 76, 1)"></circle><circle r="5" cx="1406.3" cy="111.8" fill="rgba(31, 77, 76, 1)"></circle><circle r="5" cx="1402.28" cy="218.97" fill="rgba(31, 77, 76, 1)"></circle><circle r="5" cx="1438.76" cy="547.27" fill="rgba(31, 77, 76, 1)"></circle><circle r="5" cx="1446.42" cy="694.6" fill="rgba(31, 77, 76, 1)"></circle><circle r="5" cx="1553.51" cy="-91.87" fill="rgba(31, 77, 76, 1)"></circle><circle r="5" cx="1588.53" cy="110.1" fill="rgba(31, 77, 76, 1)"></circle><circle r="5" cx="1604.38" cy="254.76" fill="rgba(31, 77, 76, 1)"></circle><circle r="5" cx="1562.48" cy="406.46" fill="rgba(31, 77, 76, 1)"></circle><circle r="5" cx="1607.91" cy="544.76" fill="rgba(31, 77, 76, 1)"></circle><circle r="5" cx="1599.26" cy="656.27" fill="rgba(31, 77, 76, 1)"></circle><path d="M61.11 514.29L61.11 514.29" stroke="hsl(181.39999999999998, 71.4%, 30.3%)" stroke-width="1.5"></path><path d="M61.11 514.29L-86.39 495.29" stroke="hsl(181.39999999999998, 71.4%, 30.3%)" stroke-width="1.5"></path><path d="M61.11 514.29L225.81 548.87" stroke="hsl(181.39999999999998, 71.4%, 30.3%)" stroke-width="1.5"></path><path d="M61.11 514.29L223.86 669.16" stroke="hsl(181.39999999999998, 71.4%, 30.3%)" stroke-width="1.5"></path><path d="M61.11 514.29L399.66 492.98" stroke="hsl(181.39999999999998, 71.4%, 30.3%)" stroke-width="1.5"></path><path d="M1094.4 349.01L1094.4 349.01" stroke="hsl(181.39999999999998, 71.4%, 30.3%)" stroke-width="1.5"></path><path d="M1094.4 349.01L995.2 350.38" stroke="hsl(181.39999999999998, 71.4%, 30.3%)" stroke-width="1.5"></path><path d="M1094.4 349.01L1107.93 235.72" stroke="hsl(181.39999999999998, 71.4%, 30.3%)" stroke-width="1.5"></path><path d="M1094.4 349.01L1097.91 490.29" stroke="hsl(181.39999999999998, 71.4%, 30.3%)" stroke-width="1.5"></path><path d="M1094.4 349.01L1261.99 344.6" stroke="hsl(181.39999999999998, 71.4%, 30.3%)" stroke-width="1.5"></path><path d="M1602.48 82.99L1602.48 82.99" stroke="hsl(181.39999999999998, 71.4%, 30.3%)" stroke-width="1.5"></path><path d="M1602.48 82.99L1611.85 -41.17" stroke="hsl(181.39999999999998, 71.4%, 30.3%)" stroke-width="1.5"></path><path d="M1602.48 82.99L1543.3 194.63" stroke="hsl(181.39999999999998, 71.4%, 30.3%)" stroke-width="1.5"></path><path d="M1602.48 82.99L1401.34 48.39" stroke="hsl(181.39999999999998, 71.4%, 30.3%)" stroke-width="1.5"></path><path d="M1602.48 82.99L1576.67 401.66" stroke="hsl(181.39999999999998, 71.4%, 30.3%)" stroke-width="1.5"></path><path d="M1602.48 82.99L1264.75 87.01" stroke="hsl(181.39999999999998, 71.4%, 30.3%)" stroke-width="1.5"></path><path d="M1602.48 82.99L1285.14 -85.79" stroke="hsl(181.39999999999998, 71.4%, 30.3%)" stroke-width="1.5"></path><path d="M-86.39 495.29L-86.39 495.29" stroke="hsl(181.39999999999998, 71.4%, 30.3%)" stroke-width="1.5"></path><path d="M-86.39 495.29L225.81 548.87" stroke="hsl(181.39999999999998, 71.4%, 30.3%)" stroke-width="1.5"></path><path d="M-86.39 495.29L223.86 669.16" stroke="hsl(181.39999999999998, 71.4%, 30.3%)" stroke-width="1.5"></path><path d="M-86.39 495.29L399.66 492.98" stroke="hsl(181.39999999999998, 71.4%, 30.3%)" stroke-width="1.5"></path><path d="M-86.39 495.29L375.32 695.81" stroke="hsl(181.39999999999998, 71.4%, 30.3%)" stroke-width="1.5"></path><path d="M225.81 548.87L225.81 548.87" stroke="hsl(181.39999999999998, 71.4%, 30.3%)" stroke-width="1.5"></path><path d="M225.81 548.87L223.86 669.16" stroke="hsl(181.39999999999998, 71.4%, 30.3%)" stroke-width="1.5"></path><path d="M225.81 548.87L399.66 492.98" stroke="hsl(181.39999999999998, 71.4%, 30.3%)" stroke-width="1.5"></path><path d="M225.81 548.87L375.32 695.81" stroke="hsl(181.39999999999998, 71.4%, 30.3%)" stroke-width="1.5"></path><path d="M225.81 548.87L537.82 529.16" stroke="hsl(181.39999999999998, 71.4%, 30.3%)" stroke-width="1.5"></path><path d="M223.86 669.16L223.86 669.16" stroke="hsl(181.39999999999998, 71.4%, 30.3%)" stroke-width="1.5"></path><path d="M223.86 669.16L375.32 695.81" stroke="hsl(181.39999999999998, 71.4%, 30.3%)" stroke-width="1.5"></path><path d="M223.86 669.16L399.66 492.98" stroke="hsl(181.39999999999998, 71.4%, 30.3%)" stroke-width="1.5"></path><path d="M399.66 492.98L399.66 492.98" stroke="hsl(181.39999999999998, 71.4%, 30.3%)" stroke-width="1.5"></path><path d="M399.66 492.98L537.82 529.16" stroke="hsl(181.39999999999998, 71.4%, 30.3%)" stroke-width="1.5"></path><path d="M399.66 492.98L375.32 695.81" stroke="hsl(181.39999999999998, 71.4%, 30.3%)" stroke-width="1.5"></path><path d="M399.66 492.98L517.11 682.79" stroke="hsl(181.39999999999998, 71.4%, 30.3%)" stroke-width="1.5"></path><path d="M375.32 695.81L375.32 695.81" stroke="hsl(181.39999999999998, 71.4%, 30.3%)" stroke-width="1.5"></path><path d="M375.32 695.81L517.11 682.79" stroke="hsl(181.39999999999998, 71.4%, 30.3%)" stroke-width="1.5"></path><path d="M537.82 529.16L537.82 529.16" stroke="hsl(181.39999999999998, 71.4%, 30.3%)" stroke-width="1.5"></path><path d="M537.82 529.16L688.79 513.39" stroke="hsl(181.39999999999998, 71.4%, 30.3%)" stroke-width="1.5"></path><path d="M537.82 529.16L517.11 682.79" stroke="hsl(181.39999999999998, 71.4%, 30.3%)" stroke-width="1.5"></path><path d="M537.82 529.16L667.61 639.6" stroke="hsl(181.39999999999998, 71.4%, 30.3%)" stroke-width="1.5"></path><path d="M517.11 682.79L517.11 682.79" stroke="hsl(181.39999999999998, 71.4%, 30.3%)" stroke-width="1.5"></path><path d="M671.47 387.1L671.47 387.1" stroke="hsl(181.39999999999998, 71.4%, 30.3%)" stroke-width="1.5"></path><path d="M671.47 387.1L688.79 513.39" stroke="hsl(181.39999999999998, 71.4%, 30.3%)" stroke-width="1.5"></path><path d="M671.47 387.1L838.18 368.17" stroke="hsl(181.39999999999998, 71.4%, 30.3%)" stroke-width="1.5"></path><path d="M671.47 387.1L537.82 529.16" stroke="hsl(181.39999999999998, 71.4%, 30.3%)" stroke-width="1.5"></path><path d="M671.47 387.1L811.25 541.02" stroke="hsl(181.39999999999998, 71.4%, 30.3%)" stroke-width="1.5"></path><path d="M671.47 387.1L667.61 639.6" stroke="hsl(181.39999999999998, 71.4%, 30.3%)" stroke-width="1.5"></path><path d="M688.79 513.39L688.79 513.39" stroke="hsl(181.39999999999998, 71.4%, 30.3%)" stroke-width="1.5"></path><path d="M688.79 513.39L811.25 541.02" stroke="hsl(181.39999999999998, 71.4%, 30.3%)" stroke-width="1.5"></path><path d="M688.79 513.39L667.61 639.6" stroke="hsl(181.39999999999998, 71.4%, 30.3%)" stroke-width="1.5"></path><path d="M688.79 513.39L830.24 641.33" stroke="hsl(181.39999999999998, 71.4%, 30.3%)" stroke-width="1.5"></path><path d="M667.61 639.6L667.61 639.6" stroke="hsl(181.39999999999998, 71.4%, 30.3%)" stroke-width="1.5"></path><path d="M667.61 639.6L517.11 682.79" stroke="hsl(181.39999999999998, 71.4%, 30.3%)" stroke-width="1.5"></path><path d="M667.61 639.6L830.24 641.33" stroke="hsl(181.39999999999998, 71.4%, 30.3%)" stroke-width="1.5"></path><path d="M667.61 639.6L811.25 541.02" stroke="hsl(181.39999999999998, 71.4%, 30.3%)" stroke-width="1.5"></path><path d="M838.18 368.17L838.18 368.17" stroke="hsl(181.39999999999998, 71.4%, 30.3%)" stroke-width="1.5"></path><path d="M838.18 368.17L995.2 350.38" stroke="hsl(181.39999999999998, 71.4%, 30.3%)" stroke-width="1.5"></path><path d="M811.25 541.02L811.25 541.02" stroke="hsl(181.39999999999998, 71.4%, 30.3%)" stroke-width="1.5"></path><path d="M811.25 541.02L830.24 641.33" stroke="hsl(181.39999999999998, 71.4%, 30.3%)" stroke-width="1.5"></path><path d="M811.25 541.02L838.18 368.17" stroke="hsl(181.39999999999998, 71.4%, 30.3%)" stroke-width="1.5"></path><path d="M811.25 541.02L1006.84 538.96" stroke="hsl(181.39999999999998, 71.4%, 30.3%)" stroke-width="1.5"></path><path d="M830.24 641.33L830.24 641.33" stroke="hsl(181.39999999999998, 71.4%, 30.3%)" stroke-width="1.5"></path><path d="M830.24 641.33L955.34 682.7" stroke="hsl(181.39999999999998, 71.4%, 30.3%)" stroke-width="1.5"></path><path d="M830.24 641.33L1006.84 538.96" stroke="hsl(181.39999999999998, 71.4%, 30.3%)" stroke-width="1.5"></path><path d="M995.2 350.38L995.2 350.38" stroke="hsl(181.39999999999998, 71.4%, 30.3%)" stroke-width="1.5"></path><path d="M995.2 350.38L1107.93 235.72" stroke="hsl(181.39999999999998, 71.4%, 30.3%)" stroke-width="1.5"></path><path d="M995.2 350.38L1097.91 490.29" stroke="hsl(181.39999999999998, 71.4%, 30.3%)" stroke-width="1.5"></path><path d="M995.2 350.38L1006.84 538.96" stroke="hsl(181.39999999999998, 71.4%, 30.3%)" stroke-width="1.5"></path><path d="M1006.84 538.96L1006.84 538.96" stroke="hsl(181.39999999999998, 71.4%, 30.3%)" stroke-width="1.5"></path><path d="M1006.84 538.96L1097.91 490.29" stroke="hsl(181.39999999999998, 71.4%, 30.3%)" stroke-width="1.5"></path><path d="M1006.84 538.96L1104.48 645.55" stroke="hsl(181.39999999999998, 71.4%, 30.3%)" stroke-width="1.5"></path><path d="M955.34 682.7L955.34 682.7" stroke="hsl(181.39999999999998, 71.4%, 30.3%)" stroke-width="1.5"></path><path d="M955.34 682.7L1006.84 538.96" stroke="hsl(181.39999999999998, 71.4%, 30.3%)" stroke-width="1.5"></path><path d="M955.34 682.7L1104.48 645.55" stroke="hsl(181.39999999999998, 71.4%, 30.3%)" stroke-width="1.5"></path><path d="M955.34 682.7L811.25 541.02" stroke="hsl(181.39999999999998, 71.4%, 30.3%)" stroke-width="1.5"></path><path d="M955.34 682.7L1097.91 490.29" stroke="hsl(181.39999999999998, 71.4%, 30.3%)" stroke-width="1.5"></path><path d="M1107.93 235.72L1107.93 235.72" stroke="hsl(181.39999999999998, 71.4%, 30.3%)" stroke-width="1.5"></path><path d="M1107.93 235.72L1261.99 344.6" stroke="hsl(181.39999999999998, 71.4%, 30.3%)" stroke-width="1.5"></path><path d="M1097.91 490.29L1097.91 490.29" stroke="hsl(181.39999999999998, 71.4%, 30.3%)" stroke-width="1.5"></path><path d="M1097.91 490.29L1104.48 645.55" stroke="hsl(181.39999999999998, 71.4%, 30.3%)" stroke-width="1.5"></path><path d="M1097.91 490.29L1282.67 547.72" stroke="hsl(181.39999999999998, 71.4%, 30.3%)" stroke-width="1.5"></path><path d="M1097.91 490.29L1241.02 652.17" stroke="hsl(181.39999999999998, 71.4%, 30.3%)" stroke-width="1.5"></path><path d="M1104.48 645.55L1104.48 645.55" stroke="hsl(181.39999999999998, 71.4%, 30.3%)" stroke-width="1.5"></path><path d="M1104.48 645.55L1241.02 652.17" stroke="hsl(181.39999999999998, 71.4%, 30.3%)" stroke-width="1.5"></path><path d="M1285.14 -85.79L1285.14 -85.79" stroke="hsl(181.39999999999998, 71.4%, 30.3%)" stroke-width="1.5"></path><path d="M1285.14 -85.79L1264.75 87.01" stroke="hsl(181.39999999999998, 71.4%, 30.3%)" stroke-width="1.5"></path><path d="M1285.14 -85.79L1401.34 48.39" stroke="hsl(181.39999999999998, 71.4%, 30.3%)" stroke-width="1.5"></path><path d="M1285.14 -85.79L1611.85 -41.17" stroke="hsl(181.39999999999998, 71.4%, 30.3%)" stroke-width="1.5"></path><path d="M1264.75 87.01L1264.75 87.01" stroke="hsl(181.39999999999998, 71.4%, 30.3%)" stroke-width="1.5"></path><path d="M1264.75 87.01L1401.34 48.39" stroke="hsl(181.39999999999998, 71.4%, 30.3%)" stroke-width="1.5"></path><path d="M1264.75 87.01L1107.93 235.72" stroke="hsl(181.39999999999998, 71.4%, 30.3%)" stroke-width="1.5"></path><path d="M1264.75 87.01L1261.99 344.6" stroke="hsl(181.39999999999998, 71.4%, 30.3%)" stroke-width="1.5"></path><path d="M1264.75 87.01L1543.3 194.63" stroke="hsl(181.39999999999998, 71.4%, 30.3%)" stroke-width="1.5"></path><path d="M1264.75 87.01L1094.4 349.01" stroke="hsl(181.39999999999998, 71.4%, 30.3%)" stroke-width="1.5"></path><path d="M1261.99 344.6L1261.99 344.6" stroke="hsl(181.39999999999998, 71.4%, 30.3%)" stroke-width="1.5"></path><path d="M1282.67 547.72L1282.67 547.72" stroke="hsl(181.39999999999998, 71.4%, 30.3%)" stroke-width="1.5"></path><path d="M1282.67 547.72L1241.02 652.17" stroke="hsl(181.39999999999998, 71.4%, 30.3%)" stroke-width="1.5"></path><path d="M1282.67 547.72L1413.04 540.72" stroke="hsl(181.39999999999998, 71.4%, 30.3%)" stroke-width="1.5"></path><path d="M1241.02 652.17L1241.02 652.17" stroke="hsl(181.39999999999998, 71.4%, 30.3%)" stroke-width="1.5"></path><path d="M1241.02 652.17L1413.04 540.72" stroke="hsl(181.39999999999998, 71.4%, 30.3%)" stroke-width="1.5"></path><path d="M1241.02 652.17L1441.87 702.19" stroke="hsl(181.39999999999998, 71.4%, 30.3%)" stroke-width="1.5"></path><path d="M1401.34 48.39L1401.34 48.39" stroke="hsl(181.39999999999998, 71.4%, 30.3%)" stroke-width="1.5"></path><path d="M1401.34 48.39L1543.3 194.63" stroke="hsl(181.39999999999998, 71.4%, 30.3%)" stroke-width="1.5"></path><path d="M1401.34 48.39L1611.85 -41.17" stroke="hsl(181.39999999999998, 71.4%, 30.3%)" stroke-width="1.5"></path><path d="M1401.34 48.39L1261.99 344.6" stroke="hsl(181.39999999999998, 71.4%, 30.3%)" stroke-width="1.5"></path><path d="M1413.04 540.72L1413.04 540.72" stroke="hsl(181.39999999999998, 71.4%, 30.3%)" stroke-width="1.5"></path><path d="M1413.04 540.72L1564.24 559.49" stroke="hsl(181.39999999999998, 71.4%, 30.3%)" stroke-width="1.5"></path><path d="M1441.87 702.19L1441.87 702.19" stroke="hsl(181.39999999999998, 71.4%, 30.3%)" stroke-width="1.5"></path><path d="M1441.87 702.19L1563.81 659.02" stroke="hsl(181.39999999999998, 71.4%, 30.3%)" stroke-width="1.5"></path><path d="M1441.87 702.19L1413.04 540.72" stroke="hsl(181.39999999999998, 71.4%, 30.3%)" stroke-width="1.5"></path><path d="M1441.87 702.19L1564.24 559.49" stroke="hsl(181.39999999999998, 71.4%, 30.3%)" stroke-width="1.5"></path><path d="M1611.85 -41.17L1611.85 -41.17" stroke="hsl(181.39999999999998, 71.4%, 30.3%)" stroke-width="1.5"></path><path d="M1543.3 194.63L1543.3 194.63" stroke="hsl(181.39999999999998, 71.4%, 30.3%)" stroke-width="1.5"></path><path d="M1543.3 194.63L1576.67 401.66" stroke="hsl(181.39999999999998, 71.4%, 30.3%)" stroke-width="1.5"></path><path d="M1576.67 401.66L1576.67 401.66" stroke="hsl(181.39999999999998, 71.4%, 30.3%)" stroke-width="1.5"></path><path d="M1576.67 401.66L1564.24 559.49" stroke="hsl(181.39999999999998, 71.4%, 30.3%)" stroke-width="1.5"></path><path d="M1576.67 401.66L1413.04 540.72" stroke="hsl(181.39999999999998, 71.4%, 30.3%)" stroke-width="1.5"></path><path d="M1576.67 401.66L1563.81 659.02" stroke="hsl(181.39999999999998, 71.4%, 30.3%)" stroke-width="1.5"></path><path d="M1564.24 559.49L1564.24 559.49" stroke="hsl(181.39999999999998, 71.4%, 30.3%)" stroke-width="1.5"></path><path d="M1564.24 559.49L1563.81 659.02" stroke="hsl(181.39999999999998, 71.4%, 30.3%)" stroke-width="1.5"></path><path d="M1564.24 559.49L1282.67 547.72" stroke="hsl(181.39999999999998, 71.4%, 30.3%)" stroke-width="1.5"></path><path d="M1564.24 559.49L1241.02 652.17" stroke="hsl(181.39999999999998, 71.4%, 30.3%)" stroke-width="1.5"></path><path d="M1563.81 659.02L1563.81 659.02" stroke="hsl(181.39999999999998, 71.4%, 30.3%)" stroke-width="1.5"></path><circle r="25" cx="61.11" cy="514.29" fill="url(&quot;#SvgjsRadialGradient3751&quot;)"></circle><circle r="25" cx="1094.4" cy="349.01" fill="url(&quot;#SvgjsRadialGradient3751&quot;)"></circle><circle r="25" cx="1602.48" cy="82.99" fill="url(&quot;#SvgjsRadialGradient3751&quot;)"></circle><circle r="5" cx="-86.39" cy="495.29" fill="#88b2b3"></circle><circle r="5" cx="225.81" cy="548.87" fill="#88b2b3"></circle><circle r="5" cx="223.86" cy="669.16" fill="#88b2b3"></circle><circle r="5" cx="399.66" cy="492.98" fill="#88b2b3"></circle><circle r="5" cx="375.32" cy="695.81" fill="#88b2b3"></circle><circle r="5" cx="537.82" cy="529.16" fill="#88b2b3"></circle><circle r="5" cx="517.11" cy="682.79" fill="#88b2b3"></circle><circle r="5" cx="671.47" cy="387.1" fill="#88b2b3"></circle><circle r="5" cx="688.79" cy="513.39" fill="#88b2b3"></circle><circle r="5" cx="667.61" cy="639.6" fill="#88b2b3"></circle><circle r="5" cx="838.18" cy="368.17" fill="#88b2b3"></circle><circle r="5" cx="811.25" cy="541.02" fill="#88b2b3"></circle><circle r="5" cx="830.24" cy="641.33" fill="#88b2b3"></circle><circle r="5" cx="995.2" cy="350.38" fill="#88b2b3"></circle><circle r="5" cx="1006.84" cy="538.96" fill="#88b2b3"></circle><circle r="5" cx="955.34" cy="682.7" fill="#88b2b3"></circle><circle r="5" cx="1107.93" cy="235.72" fill="#88b2b3"></circle><circle r="5" cx="1097.91" cy="490.29" fill="#88b2b3"></circle><circle r="5" cx="1104.48" cy="645.55" fill="#88b2b3"></circle><circle r="5" cx="1285.14" cy="-85.79" fill="#88b2b3"></circle><circle r="5" cx="1264.75" cy="87.01" fill="#88b2b3"></circle><circle r="5" cx="1261.99" cy="344.6" fill="#88b2b3"></circle><circle r="5" cx="1282.67" cy="547.72" fill="#88b2b3"></circle><circle r="5" cx="1241.02" cy="652.17" fill="#88b2b3"></circle><circle r="5" cx="1401.34" cy="48.39" fill="#88b2b3"></circle><circle r="5" cx="1413.04" cy="540.72" fill="#88b2b3"></circle><circle r="5" cx="1441.87" cy="702.19" fill="#88b2b3"></circle><circle r="5" cx="1611.85" cy="-41.17" fill="#88b2b3"></circle><circle r="5" cx="1543.3" cy="194.63" fill="#88b2b3"></circle><circle r="5" cx="1576.67" cy="401.66" fill="#88b2b3"></circle><circle r="5" cx="1564.24" cy="559.49" fill="#88b2b3"></circle><circle r="5" cx="1563.81" cy="659.02" fill="#88b2b3"></circle></g><defs><mask id="SvgjsMask3749"><rect width="1440" height="560" fill="#ffffff"></rect></mask><linearGradient x1="15.28%" y1="-39.29%" x2="84.72%" y2="139.29%" gradientUnits="userSpaceOnUse" id="SvgjsLinearGradient3750"><stop stop-color="rgba(44, 53, 49, 1)" offset="0"></stop><stop stop-color="rgba(8, 21, 22, 0.28)" offset="1"></stop></linearGradient><radialGradient id="SvgjsRadialGradient3751"><stop stop-color="#ffffff" offset="0.1"></stop><stop stop-color="rgba(17, 100, 102, 1)" offset="0.2"></stop><stop stop-color="rgba(17, 100, 102, 0)" offset="1"></stop></radialGradient></defs></svg>