<svg xmlns="http://www.w3.org/2000/svg" version="1.1" xmlns:xlink="http://www.w3.org/1999/xlink" xmlns:svgjs="http://svgjs.dev/svgjs" width="1440" height="560" preserveAspectRatio="none" viewBox="0 0 1440 560"><g mask="url(&quot;#SvgjsMask1006&quot;)" fill="none"><path d="M352.05 634.3C496.9 596.94 539.08 208.45 764.18 200.48 989.29 192.51 970.25 270.48 1176.32 270.48 1382.38 270.48 1483.94 200.73 1588.45 200.48" stroke="rgba(151, 8, 201, 0.58)" stroke-width="2"></path><path d="M283.69 636.27C407.37 634.72 519.79 493.24 757.29 493.19 994.79 493.14 994.09 563.19 1230.89 563.19 1467.69 563.19 1584.8 493.38 1704.49 493.19" stroke="rgba(151, 8, 201, 0.58)" stroke-width="2"></path><path d="M203.58 612.09C402.62 601.45 534.81 253.67 911.68 245.64 1288.56 237.61 1438.78 95.28 1619.79 94.44" stroke="rgba(151, 8, 201, 0.58)" stroke-width="2"></path><path d="M712.91 625.65C822.94 604.38 791.98 325.22 1044.95 324.52 1297.93 323.82 1540.19 447.2 1709.04 447.72" stroke="rgba(151, 8, 201, 0.58)" stroke-width="2"></path><path d="M935.28 635.17C1049.12 556.79 977.1 151.59 1185.43 142.14 1393.76 132.69 1556.59 269.91 1685.74 270.94" stroke="rgba(151, 8, 201, 0.58)" stroke-width="2"></path></g><defs><mask id="SvgjsMask1006"><rect width="1440" height="560" fill="#ffffff"></rect></mask></defs></svg>