<svg xmlns="http://www.w3.org/2000/svg" version="1.1" xmlns:xlink="http://www.w3.org/1999/xlink" xmlns:svgjs="http://svgjs.dev/svgjs" width="1440" height="560" preserveAspectRatio="none" viewBox="0 0 1440 560"><g mask="url(&quot;#SvgjsMask1067&quot;)" fill="none"><path d="M -56.043219660779016,465 C 15.96,372.6 159.96,10 303.956780339221,3 C 447.96,-4 519.96,417 663.956780339221,430 C 807.96,443 879.96,96 1023.956780339221,68 C 1167.96,40 1239.96,255.8 1383.956780339221,290 C 1527.96,324.2 1732.75,208.4 1743.956780339221,239 C 1755.17,269.6 1500.79,402.2 1440,443" stroke="rgba(51, 121, 194, 0.58)" stroke-width="2"></path><path d="M -266.94652745026514,204 C -194.95,266.4 -50.95,507.2 93.05347254973488,516 C 237.05,524.8 309.05,242.6 453.05347254973486,248 C 597.05,253.4 669.05,553 813.0534725497349,543 C 957.05,533 1029.05,208.8 1173.0534725497348,198 C 1317.05,187.2 1479.66,517.4 1533.0534725497348,489 C 1586.44,460.6 1458.61,142.6 1440,56" stroke="rgba(51, 121, 194, 0.58)" stroke-width="2"></path><path d="M -602.4248021007826,515 C -530.42,444.8 -386.42,166.4 -242.42480210078259,164 C -98.42,161.6 -26.42,532.6 117.57519789921741,503 C 261.58,473.4 333.58,58.6 477.5751978992174,16 C 621.58,-26.6 693.58,256.4 837.5751978992174,290 C 981.58,323.6 1077.09,181.2 1197.5751978992175,184 C 1318.06,186.8 1391.52,280 1440,304" stroke="rgba(51, 121, 194, 0.58)" stroke-width="2"></path><path d="M -666.5254282731136,238 C -594.53,299.2 -450.53,556.6 -306.52542827311356,544 C -162.53,531.4 -90.53,217 53.47457172688644,175 C 197.47,133 269.47,361.2 413.47457172688644,334 C 557.47,306.8 629.47,29 773.4745717268864,39 C 917.47,49 1000.17,351.2 1133.4745717268866,384 C 1266.78,416.8 1378.69,239.2 1440,203" stroke="rgba(51, 121, 194, 0.58)" stroke-width="2"></path></g><defs><mask id="SvgjsMask1067"><rect width="1440" height="560" fill="#ffffff"></rect></mask></defs></svg>